<?xml version="1.0" encoding="UTF-8"?>
<svg xmlns="http://www.w3.org/2000/svg" id="Layer_1" data-name="Layer 1" viewBox="0 0 352.06 73.88">
  <path d="M190.63,5.67H201.9c14.62,0,23.78,6.45,23.78,22.4,0,15.15-9,23.71-21.81,23.71H190.63Zm13.24,42.16C213.82,47.83,221,40.52,221,28c0-13.7-7.31-18.38-19.1-18.38h-6.66V47.83Z"></path>
  <path d="M256,21.08a13.36,13.36,0,0,1,7.71,2.44l4.68-4.94,3.22,3.23-4.87,4.61a13.15,13.15,0,0,1,2.7,8,13.55,13.55,0,0,1-21,11.13c-3,2.9-3,8.76,1.38,8.76,3,0,7.51-1.71,11.92-1.71,5.93,0,9.69,3.82,9.69,8.63,0,5.8-5.21,10.8-15,10.8-13.38,0-18.71-9.09-12.78-16.2-2.84-3.43-1.45-9.42,2.43-12.19A13.43,13.43,0,0,1,256,21.08Zm-9.81,36.56c-3.1,3.89.33,10.15,10.21,10.15,7.51,0,10.54-3.29,10.54-6.52,0-2.31-1.52-4.75-5.21-4.75s-7.24,1.78-11.92,1.78A9.48,9.48,0,0,1,246.17,57.64ZM256,44.21c5.21,0,8.9-4.22,8.9-9.75s-3.69-9.75-8.9-9.75-9.09,4.21-9.09,9.75S251,44.21,256,44.21Z"></path>
  <path d="M296,51.78V25.69H290.7v-4H296V9h4.61V21.74h5.27v4h-5.27V51.78Z"></path>
  <path d="M338.65,51.78a5.72,5.72,0,0,1-6.06-5.2c-2.11,2.9-5.74,5.86-12.19,5.86-14,0-14.17-17.39.13-18.84a34.09,34.09,0,0,1,12.06,1v-2c0-4.74-3.3-7.77-8.37-7.77A10.24,10.24,0,0,0,316,29l-3.5-2.7a14.15,14.15,0,0,1,11.73-5.67c7.84,0,12.58,4.74,12.58,12v13a1.73,1.73,0,0,0,1.85,1.84h.59v4.28Zm-6.06-13.64a40.09,40.09,0,0,0-11.6-.79c-8.17.93-9.35,11.07,0,11.07C329.09,48.42,332.39,42.23,332.59,38.14Z"></path>
  <path d="M345.12,51.78V2.37h4.61V51.78Z"></path>
  <path d="M234.05,11.07A2.89,2.89,0,1,1,231.16,14,2.92,2.92,0,0,1,234.05,11.07Zm-2.31,40.72V21.68h4.62V51.79Z"></path>
  <path d="M280.83,11.07A2.89,2.89,0,1,1,278,14,2.92,2.92,0,0,1,280.83,11.07Zm-2.31,40.72V21.68h4.62V51.79Z"></path>
  <path d="M30.79,37.81H6.34A10.54,10.54,0,0,0,17.28,48a11.78,11.78,0,0,0,10.08-5l3.23,2.66C27.82,49.14,24.27,52,17.28,52,7.92,52,1.86,45.06,1.86,36.52S7.79,21.05,16.75,21.05c9.29,0,14,6.86,14,14.5ZM6.41,34.38H26.18c-.66-5.69-3.83-9.45-9.43-9.45C11.55,24.93,7.2,28.23,6.41,34.38Z"></path>
  <path d="M58.46,52a23.5,23.5,0,0,1-23.72-23.3A23.55,23.55,0,0,1,58.46,5.38a23.8,23.8,0,0,1,16.74,6.8L72,15.42A19.52,19.52,0,0,0,58.46,9.66a19,19,0,1,0,0,38.05A19.38,19.38,0,0,0,72.1,41.82l3.23,3.24A23.86,23.86,0,0,1,58.46,52Z"></path>
  <path d="M84.16,51.34V2.8h4.61V51.34Z"></path>
  <path d="M126,37.81H101.56A10.53,10.53,0,0,0,112.49,48a11.81,11.81,0,0,0,10.09-5l3.22,2.66C123,49.14,119.48,52,112.49,52c-9.35,0-15.41-6.93-15.41-15.47S103,21.05,112,21.05c9.29,0,14,6.86,14,14.5Zm-24.38-3.43h19.77c-.66-5.69-3.82-9.45-9.42-9.45C106.76,24.93,102.41,28.23,101.62,34.38Z"></path>
  <path d="M138.65,51.34h-4.34V21.82h4.34v1.95a10.17,10.17,0,0,1-.06,1.35,9.63,9.63,0,0,1,8.17-4v4c-4.88.33-8,4.21-8.11,9.33Z"></path>
  <path d="M151.67,51.41l12.08-15.26,2.79-3.53,8.7-11h5.51L169.26,36.15l-2.72,3.45-9.36,11.81Z"></path>
  <path d="M163.75,36.15,152.33,21.66h5.51l8.7,11Z"></path>
  <path d="M169.26,36.15l12.16,15.26h-5.51L166.54,39.6Z"></path>
  <path d="M163.7,36.26l2.8-3.53,2.73,3.53-2.73,3.47Z"></path>
</svg>
